<svg xmlns="http://www.w3.org/2000/svg" viewBox="0 0 158.75 66.15">
  <path style="stroke:var(--color-foreground-primary)" fill-opacity=".55" stroke-dasharray=".3 .3" stroke-dashoffset=".18" stroke-width=".3" d="m88.03 45.77.03-4.2"/>
  <path style="stroke:var(--color-foreground-primary)" fill-opacity=".55" stroke-dasharray=".3 .3" stroke-width=".3" d="M88.06 24.88V14.42"/>
  <path style="fill:var(--color-foreground-primary)" d="M16.66 25.13c-1.96 0-3.73.2-5.04.53-.66.16-1.2.36-1.6.6-.39.23-.68.54-.7.93v12.06c.03.38.32.68.7.91.4.24.94.43 1.6.6 1.3.33 3.08.53 5.04.53s3.74-.2 5.04-.53a6.2 6.2 0 0 0 1.6-.6c.38-.23.67-.53.7-.91V27.2c-.01-.4-.3-.7-.7-.94-.4-.24-.94-.44-1.6-.6-1.3-.33-3.08-.53-5.04-.53zm0 .64c1.91 0 3.64.2 4.87.5a6 6 0 0 1 1.4.53c.32.2.41.34.41.42 0 .08-.1.24-.4.42-.3.2-.8.37-1.4.53-1.24.31-2.97.5-4.88.5-1.91 0-3.64-.19-4.87-.5a5.53 5.53 0 0 1-1.4-.53c-.32-.18-.4-.34-.4-.42 0-.08.08-.23.4-.42.3-.18.79-.37 1.4-.52a20.9 20.9 0 0 1 4.87-.51zm-6.71 2.37.07.05c.4.24.94.43 1.6.6 1.3.33 3.08.53 5.04.53s3.74-.2 5.04-.53a11.7 11.7 0 0 0 1.67-.65l-.01 3.06s-.11.25-.42.43c-.3.2-.8.37-1.4.53-1.24.3-2.97.5-4.88.5-1.91 0-3.64-.2-4.87-.5a5.54 5.54 0 0 1-1.4-.53 1.12 1.12 0 0 1-.44-.42zm0 4 .07.04c.4.24.95.43 1.6.6 1.3.33 3.08.53 5.04.53s3.74-.2 5.04-.53a6.2 6.2 0 0 0 1.6-.6l.07-.05-.01 3.06s-.11.25-.42.43c-.3.18-.8.37-1.4.53-1.24.3-2.97.5-4.88.5-1.91 0-3.64-.2-4.87-.5-.49-.11-.96-.3-1.4-.53a1.13 1.13 0 0 1-.44-.42zm0 3.98.07.04c.4.24.95.44 1.6.6 1.3.34 3.08.54 5.04.54s3.74-.2 5.04-.53c.66-.17 1.2-.37 1.6-.6l.07-.05-.01 3.02s-.11.29-.42.47c-.3.19-.8.37-1.4.53-1.24.3-2.97.5-4.88.5-1.91 0-3.64-.2-4.87-.5-.49-.11-.96-.3-1.4-.53-.32-.18-.44-.47-.44-.47z"/>
  <path style="fill:var(--color-foreground-primary)" d="M138.73 25.35a.4.4 0 0 0-.03 0 .4.4 0 0 0-.18.08l-3.24 1.88h-.01a.4.4 0 0 0-.1.05l-3.24 1.87a.4.4 0 0 0-.03.02.4.4 0 0 0-.03.02h-.01l-.01.01a.4.4 0 0 0-.03.02.42.42 0 0 0-.03.03l-.02.03a.42.42 0 0 0-.03.03.4.4 0 0 0-.04.08.4.4 0 0 0 0 .04l-.02.03a.4.4 0 0 0 0 .05.4.4 0 0 0 0 .05.4.4 0 0 0 0 .04v7.59c0 .07 0 .14.03.21l.02.03a.42.42 0 0 0 .04.07c.04.05.1.1.16.12l6.58 3.8.02.01.01.01.02.01.03.02a.4.4 0 0 0 .24.03.4.4 0 0 0 .04 0l.02-.01.02-.01a.4.4 0 0 0 .07-.04h.01l.01-.01.02-.01 6.57-3.8a.4.4 0 0 0 .2-.16l.01-.03v-.01l.02-.03a.4.4 0 0 0 .03-.21v-7.59a.4.4 0 0 0 0-.04.4.4 0 0 0 0-.04.4.4 0 0 0 0-.05.42.42 0 0 0-.02-.04.4.4 0 0 0-.13-.2l-.01-.02h-.02l-.02-.02h-.02l-.01-.02h-.02l-6.59-3.8a.4.4 0 0 0-.28-.1zm.03.86 5.9 3.4-2.55 1.47-5.9-3.4zm-3.34 1.93 5.9 3.4-2.56 1.47-5.88-3.4zm-2.94 2.16 5.89 3.4v6.8l-5.9-3.4zm12.57 0v6.8l-5.89 3.4v-6.8z"/>
  <path style="fill:var(--color-foreground-primary)" fill-opacity=".55" d="M77.74 9.68a.27.27 0 0 0-.26.26v47.1c0 .14.12.25.26.26h20.64c.14 0 .25-.12.26-.26V9.94a.27.27 0 0 0-.26-.26Zm.27.53h20.1v46.56h-20.1zm43.34-.54c.15 0 .26.12.26.27v47.1c0 .14-.12.25-.26.26H100.7a.27.27 0 0 1-.26-.27V9.94c0-.14.12-.25.26-.26zm-.27.53h-20.1v46.56h20.1z"/>
  <path style="fill:var(--color-foreground-primary)" d="M79.67 54.5v-.63a1.4 1.4 0 0 0 .73.23c.13 0 .24-.02.32-.06a.17.17 0 0 0 .11-.17.16.16 0 0 0-.05-.12l-.14-.08-.18-.07a.9.9 0 0 1-.19-.06l-.26-.12a.99.99 0 0 1-.19-.15.71.71 0 0 1-.15-.46c0-.13.03-.25.09-.35.06-.1.14-.18.24-.25.1-.07.21-.11.34-.14.13-.03.27-.04.41-.04l.33.02.34.08v.58a1.32 1.32 0 0 0-.64-.16l-.14.01a.32.32 0 0 0-.12.04.16.16 0 0 0-.11.16c0 .04.02.07.05.1.03.04.06.07.11.1l.16.06.17.05a1.43 1.43 0 0 1 .48.26.5.5 0 0 1 .14.2.8.8 0 0 1 .04.27.7.7 0 0 1-.1.38.78.78 0 0 1-.24.25 1.77 1.77 0 0 1-.8.19c-.27 0-.52-.04-.75-.13zm3.83.03a1.1 1.1 0 0 1-.51.09c-.53 0-.8-.28-.8-.84v-1.13h-.4v-.56h.4v-.54l.75-.21v.75h.56v.56h-.56v1c0 .25.1.38.3.38a.5.5 0 0 0 .26-.07zm2.48.03h-.72v-.36h-.01a.8.8 0 0 1-.74.42.76.76 0 0 1-.56-.2.76.76 0 0 1-.2-.55c0-.48.28-.76.84-.83l.67-.09c0-.27-.14-.4-.43-.4-.3 0-.58.09-.84.26v-.58a2.41 2.41 0 0 1 .93-.2c.7 0 1.06.35 1.06 1.05zm-.72-1v-.17l-.44.05c-.25.03-.38.15-.38.34 0 .09.03.16.1.21.06.06.14.09.24.09.14 0 .26-.05.35-.15.09-.1.13-.23.13-.38zm3.74.71c0 .47-.13.82-.4 1.07-.27.25-.65.38-1.15.38-.33 0-.6-.05-.79-.15v-.64c.25.15.51.22.77.22s.46-.07.6-.2a.72.72 0 0 0 .21-.55v-.2a.87.87 0 0 1-.78.42.92.92 0 0 1-.75-.34 1.36 1.36 0 0 1-.27-.89c0-.42.1-.75.3-1 .2-.24.48-.36.82-.36.3 0 .52.11.67.34h.01v-.28H89Zm-.75-.9v-.2a.61.61 0 0 0-.14-.4.46.46 0 0 0-.36-.16c-.17 0-.3.07-.4.2a.97.97 0 0 0-.14.56c0 .2.05.36.14.48.1.12.22.18.37.18.16 0 .29-.06.39-.18.1-.12.14-.28.14-.48zm1.78-1.67a.43.43 0 0 1-.32-.12.36.36 0 0 1-.12-.28c0-.11.04-.2.12-.28.08-.07.19-.1.32-.1s.24.03.31.1c.09.07.13.17.13.28 0 .11-.04.21-.13.29a.47.47 0 0 1-.31.1zm.37 2.86h-.76v-2.47h.76zm3.03 0h-.76v-1.38c0-.38-.14-.57-.41-.57a.42.42 0 0 0-.33.15.6.6 0 0 0-.12.39v1.4h-.77V52.1h.77v.39c.19-.3.45-.45.8-.45.55 0 .82.34.82 1.01zm3.02-.29c0 .47-.13.82-.4 1.07-.27.25-.65.38-1.15.38-.33 0-.6-.05-.79-.15v-.64c.25.15.51.22.77.22s.46-.07.6-.2a.72.72 0 0 0 .21-.55v-.2a.87.87 0 0 1-.78.42.92.92 0 0 1-.75-.34 1.36 1.36 0 0 1-.27-.89c0-.42.1-.75.3-1 .2-.24.48-.36.82-.36.3 0 .52.11.67.34h.01v-.28h.76zm-.75-.9v-.2a.61.61 0 0 0-.14-.4.46.46 0 0 0-.36-.16c-.17 0-.3.07-.4.2a.97.97 0 0 0-.14.56c0 .2.05.36.14.48.09.12.21.18.37.18s.29-.06.38-.18c.1-.12.15-.28.15-.48z"/>
  <path style="fill:var(--color-foreground-primary)" d="M23.53 7.89a.33.33 0 0 0-.33.32v4.29c0 .17.15.31.33.32h14.74c.19 0 .34-.14.34-.32V8.2a.33.33 0 0 0-.34-.31Zm.34.64h14.07v3.65H23.87Z"/>
  <path style="fill:var(--color-foreground-primary)" d="m24.88 9.44-.14.14v1.54l.14.14h1.64l.14-.14V9.58l-.14-.14Zm.15.28h1.35V11h-1.35Zm2.02-.28-.15.14v1.54l.15.14h1.64l.14-.14V9.58l-.14-.14Zm.14.28h1.35V11H27.2Zm-.33 5.29-.14.14v1.54l.14.14h1.64l.15-.14v-1.54l-.15-.14Zm.15.28h1.35v1.27H27Z"/>
  <path style="fill:var(--color-foreground-primary)" d="M23.53 13.46a.33.33 0 0 0-.33.32v4.3c0 .17.15.32.33.32h7.04v2.44h-4.8v.96h10.25v-.96h-4.78V18.4h7.03c.19 0 .34-.14.34-.32v-4.3c0-.18-.15-.32-.34-.32zm.34.65h14.07v3.65H23.87Zm3.59 29.71-5.58.02c-.15 0-.28.1-.32.24l-.72 1.53c-.03.06-.03.1-.03.13l-.06 9.28c0 .18.15.33.34.33h16.43c.01 0 .16-.04.24-.12.08-.07.09-.2.09-.2l.07-9.28s0-.17-.07-.25c-.08-.08-.26-.08-.27-.08h-8.45c-.44-.53-.9-1.04-1.4-1.52l-.12-.06c-.07-.02-.15-.02-.15-.02zm-5.36.67h5.33c.16.16.52.55 1.27 1.45.07.08.17.12.27.12h8.28l-.07 8.64H21.42l.07-8.92z"/>
  <path style="fill:var(--color-foreground-secondary)" d="m47.77 13.06-.11.01c-.47.08-1.3.02-2.08.57-.8.56-1.36 1.62-1.67 3.61l-.01.12c.04 1.37-.23 2.16-.58 2.6-.34.42-.8.6-1.44.6l-3.84.06.01 1.32 3.85-.05h.01c.9-.02 1.82-.33 2.44-1.1.62-.78.91-1.91.87-3.46v.12c.28-1.82.74-2.47 1.12-2.73.36-.26.83-.23 1.5-.34h5.18v-1.33zM36.65 34.97l-10.62.16v1.33l10.59-.16a6 6 0 0 1 1.98.36c.42.21.74.55 1.13 1.45l.02.04a3.5 3.5 0 0 0 1.74 1.78c.7.3 1.47.32 2.48.4h11.92V39H44.07c-.7-.01-1.4-.11-2.08-.3-.4-.16-.66-.4-1.05-1.15l.02.04c-.46-1.06-1.02-1.74-1.75-2.11-.74-.37-1.53-.42-2.48-.5h-.07zm59.6-21.87-28.6.16.02 1.33 28.55-.16c.67 0 1.34-.03 1.98.2.42.21.74.4 1.13 1.3 0 .02 0 .04.02.05.34.79.96 1.23 1.74 1.6.7.3 1.47.31 2.48.4h3.47v-1.34h-3.37c-.7 0-1.4-.1-2.08-.3-.4-.16-.66-.21-1.05-.96l.02.04a3.6 3.6 0 0 0-1.75-1.97c-.74-.37-1.53-.26-2.48-.34h-.07zm-53.4 36.74-2.93.06-.01 1.32 2.93-.06a1 1 0 0 1 .58.17c.11.09.2.18.23.44v-.03c.04.49.3.95.67 1.2a2.16 2.16 0 0 0 1.27.35h4.62v-1.32h-4.6a.95.95 0 0 1-.54-.12c-.07-.04-.1-.05-.1-.25v-.03a2 2 0 0 0-.76-1.3 2.3 2.3 0 0 0-1.36-.43zM37.7 26.03h-.04c-.6.03-1.28.13-1.84.57-.57.44-.95 1.15-1.17 2.17-.16.58-.14 1.09-.3 1.41-.16.33-.36.6-1.43.66l-6.89.1v1.33l6.93-.11H33c1.37-.08 2.21-.69 2.56-1.41.34-.72.32-1.43.38-1.65l.02-.05c.18-.84.43-1.21.68-1.4.24-.2.58-.27 1.1-.3h9.64v-1.32zM70.49 39v1.33h13.68V39H70.49zm5.05 6.75h-.03c-.6.03-1.28.13-1.84.57-.57.44-.95 1.15-1.17 2.17-.16.58-.14 2.4-.3 2.72-.16.33-.36.6-1.43.66l-5.95.1v1.32l6-.1h.02c1.37-.08 2.21-.69 2.56-1.41.34-.72.32-2.74.38-2.96l.02-.05c.18-.84.43-1.21.68-1.4.24-.2.58-.27 1.1-.3h31.48v-1.32z"/>
  <g stroke-width="1.06">
    <path style="fill:var(--color-foreground-primary)" d="M121.61 30.98v.64h2.54v-.64zm0 4.33v.65h2.54v-.65z"/>
    <path style="fill:var(--color-foreground-primary)" d="M126.32 33.14a.32.32 0 0 0-.22.1l-3.8 3.8a.32.32 0 0 0 0 .45.32.32 0 0 0 .46 0l3.8-3.8a.32.32 0 0 0 0-.45.32.32 0 0 0-.24-.1z"/>
    <path style="fill:var(--color-foreground-primary)" d="M122.53 29.35a.32.32 0 0 0-.23.1.32.32 0 0 0 0 .45l3.8 3.8a.32.32 0 0 0 .45 0 .32.32 0 0 0 0-.46l-3.8-3.8a.32.32 0 0 0-.22-.09z"/>
  </g>
  <path style="fill:var(--color-foreground-primary)" d="M49.66 21.4a.28.28 0 0 0-.27.28v10.03a.28.28 0 0 0 .27.28H59.7a.28.28 0 0 0 .28-.28V21.68a.28.28 0 0 0-.28-.28Zm.28.56h9.47v9.47h-9.47z"/>
  <path style="fill:var(--color-foreground-primary)" d="M51.72 28.24h-.66V25.1h.66zm.88-2.46q-.17 0-.27-.1-.11-.1-.11-.23 0-.15.1-.24.11-.1.28-.1.16 0 .27.1.1.09.1.24 0 .14-.1.24-.1.1-.27.1zm.32 2.46h-.65v-2.12h.65zm1.21-.25v.25h-.66V25.1h.65v1.34h.01q.24-.37.69-.37.4 0 .63.28.22.28.22.77 0 .53-.26.85-.26.32-.69.32-.39 0-.59-.3zm-.02-.9v.22q0 .2.12.34t.3.14q.22 0 .35-.17.12-.18.12-.5 0-.26-.11-.4-.12-.15-.32-.15t-.33.14q-.13.15-.13.39zm2.65.9h-.01v.25h-.66V25.1h.66v1.34q.25-.37.7-.37.4 0 .62.28.23.28.23.77 0 .53-.26.85-.26.32-.7.32-.38 0-.58-.3zm-.02-.9v.22q0 .2.11.34.12.14.3.14.23 0 .35-.17.13-.18.13-.5 0-.26-.12-.4-.11-.15-.32-.15-.2 0-.33.14-.12.15-.12.39z"/>
  <path style="fill:var(--color-foreground-primary)" d="M55.3 8.43a.28.28 0 0 0-.25.28v10.03a.28.28 0 0 0 .28.28h10.03a.28.28 0 0 0 .28-.28V8.7a.28.28 0 0 0-.28-.28H55.33a.28.28 0 0 0-.02 0zm.31.56h9.47v9.47H55.6ZM86.2 37.7a.1.1 0 0 0-.1.11v3.71c0 .06.05.1.1.1h3.71a.1.1 0 0 0 .1-.1v-3.71a.1.1 0 0 0-.1-.1H86.2zm0-12.92a.1.1 0 0 0-.1.1v3.72c0 .05.05.1.1.1h3.71a.1.1 0 0 0 .1-.1v-3.72a.1.1 0 0 0-.1-.1H86.2z"/>
  <path style="fill:var(--color-foreground-primary)" d="M57.25 14.54h-.01v1.22h-.66v-3.09h.66V13q.25-.37.69-.37.4 0 .63.29.22.28.22.76 0 .53-.26.85-.26.32-.7.32-.37 0-.57-.3zm-.02-.86v.17q0 .21.11.35.12.14.3.14.23 0 .35-.17.13-.17.13-.49 0-.56-.44-.56-.2 0-.33.16-.12.15-.12.4zm3.36-.42q-.12-.06-.28-.06-.2 0-.33.16-.12.15-.12.42v1.01h-.65v-2.12h.65v.4h.01q.16-.43.56-.43.1 0 .16.02zm.63-.92q-.16 0-.27-.1-.1-.1-.1-.24 0-.15.1-.24.1-.1.27-.1t.27.1q.11.1.11.24 0 .15-.1.24-.1.1-.28.1zm.33 2.41q0 .47-.23.75t-.66.28q-.15 0-.32-.06v-.51q.14.08.25.08.3 0 .3-.49v-2.13h.66zm2.56-2.08-.86 2.29q-.3.82-.93.82-.24 0-.4-.05v-.52q.14.08.29.08.25 0 .35-.24l.11-.26-.86-2.12h.73l.4 1.3.05.27.08-.27.4-1.3z"/>
  <path style="fill:var(--color-foreground-primary)" d="M58.17 34.37a.28.28 0 0 0-.28.28v10.03a.28.28 0 0 0 .28.28h10.02a.28.28 0 0 0 .28-.28V34.65a.28.28 0 0 0-.28-.28zm.28.56h9.46v9.47h-9.46z"/>
  <path style="fill:var(--color-foreground-primary)" d="M60.46 41.2h-.65v-3.13h.65zm.88-2.45q-.16 0-.27-.1-.1-.1-.1-.24 0-.14.1-.23.1-.1.27-.1t.27.1q.1.09.1.23 0 .15-.1.25t-.27.1zm.32 2.46h-.65v-2.12h.65zm1.22-.25h-.01v.25h-.66v-3.14h.66v1.34q.25-.37.7-.37.4 0 .62.28.23.28.23.77 0 .53-.26.85-.26.32-.7.32-.38 0-.58-.3zm-.02-.9v.22q0 .2.11.34.12.14.3.14.23 0 .35-.17.13-.18.13-.5 0-.26-.12-.4-.1-.15-.32-.15-.2 0-.32.14-.13.15-.13.39zm3.7 1.15h-.62v-.3q-.22.35-.64.35-.3 0-.48-.18-.18-.17-.18-.46 0-.62.73-.71l.58-.08q0-.35-.38-.35t-.72.23v-.5q.14-.07.37-.12.24-.05.43-.05.9 0 .9.9zm-.61-.86v-.15l-.39.05q-.32.04-.32.29 0 .11.08.18.08.07.21.07.18 0 .3-.12.12-.13.12-.32z"/>
  <path style="fill:var(--color-foreground-primary)" d="M52.5 47.34a.28.28 0 0 0-.28.28v10.03c0 .15.13.28.28.28h10.02c.15 0 .28-.13.28-.28V47.62a.28.28 0 0 0-.28-.28zm.28.56h9.46v9.46h-9.46z"/>
  <path style="fill:var(--color-foreground-primary)" d="M54.4 53.45h-.01v1.22h-.66v-3.09h.66v.32q.25-.37.69-.37.4 0 .63.28.23.28.23.77 0 .53-.27.85-.26.32-.7.32-.37 0-.57-.3zm-.02-.87v.17q0 .22.11.36.12.14.3.14.23 0 .35-.17.13-.18.13-.5 0-.55-.44-.55-.2 0-.33.15-.12.15-.12.4zm3.36-.41q-.12-.06-.27-.06-.22 0-.34.15-.12.16-.12.43v1h-.65v-2.1H57v.38h.01q.16-.43.56-.43.1 0 .16.03zm.63-.92q-.16 0-.27-.1-.1-.1-.1-.24 0-.15.1-.24.1-.1.27-.1t.28.1q.1.09.1.24t-.1.24q-.1.1-.28.1zm.33 2.41q0 .47-.23.75t-.66.28q-.15 0-.32-.06v-.51q.14.07.25.07.3 0 .3-.48v-2.13h.66zm2.6-2.08-.7 1.03.69 1.09h-.76l-.3-.57-.09-.2-.1.2-.3.57h-.75l.71-1.06-.67-1.06h.76l.3.6q.06.11.08.2h.01l.1-.21.3-.59zm44.46 2.74c-.12.06-.29.09-.51.09-.54 0-.8-.28-.8-.84v-1.13h-.4v-.56h.4v-.53l.75-.22v.75h.56v.56h-.56v1c0 .26.1.39.3.39.08 0 .17-.02.26-.07zm2.48.03h-.72V54a.83.83 0 0 1-.74.41.8.8 0 0 1-.57-.2.74.74 0 0 1-.2-.55c0-.48.28-.76.84-.83l.68-.09c0-.27-.15-.4-.44-.4-.3 0-.58.09-.84.26v-.57a2.25 2.25 0 0 1 .93-.21c.7 0 1.06.35 1.06 1.05zm-.71-1v-.17l-.45.06c-.25.03-.37.14-.37.33 0 .09.02.16.08.22a.4.4 0 0 0 .25.08c.14 0 .26-.05.35-.15.09-.1.14-.22.14-.37zm2.93-.78a.65.65 0 0 0-.33-.08.45.45 0 0 0-.38.19.78.78 0 0 0-.14.49v1.18h-.77v-2.47h.77v.46c.12-.33.34-.5.66-.5a.5.5 0 0 1 .19.03zm2.75 1.5c0 .45-.14.8-.4 1.06-.27.25-.65.38-1.15.38-.34 0-.6-.05-.8-.14v-.64c.26.15.52.22.78.22s.46-.07.6-.2a.76.76 0 0 0 .2-.56v-.2a.85.85 0 0 1-.78.42.93.93 0 0 1-.75-.33 1.37 1.37 0 0 1-.28-.9c0-.41.1-.75.31-1 .21-.24.48-.36.81-.36.31 0 .54.12.68.35h.01v-.29h.77zm-.75-.9v-.2c0-.16-.05-.3-.14-.4a.45.45 0 0 0-.36-.17c-.17 0-.3.07-.4.2a.97.97 0 0 0-.14.56c0 .2.04.36.14.49.08.12.2.18.37.18.16 0 .28-.06.38-.18.1-.13.15-.29.15-.49zm3.6.16h-1.6c.02.36.24.54.67.54.27 0 .5-.07.72-.2v.56a1.9 1.9 0 0 1-.9.18c-.4 0-.7-.11-.92-.33a1.26 1.26 0 0 1-.33-.93c0-.4.12-.73.36-.97s.53-.36.88-.36c.36 0 .63.1.83.32.2.21.3.5.3.87zm-.7-.47c0-.35-.15-.53-.43-.53a.42.42 0 0 0-.32.16.7.7 0 0 0-.16.37zm2.65 1.46a1.1 1.1 0 0 1-.5.09c-.54 0-.81-.28-.81-.84v-1.13h-.4v-.56h.4v-.53l.76-.22v.75h.55v.56h-.55v1c0 .26.1.39.3.39.08 0 .17-.02.25-.07z"/>
  <path style="fill:var(--color-foreground-primary)" d="m24.69 15.01-.14.14v1.54l.14.14h1.64l.15-.14v-1.54l-.15-.14zm.15.28h1.35v1.27h-1.36z"/>
  <path style="fill:var(--color-foreground-secondary)" d="M92.65 25.98h-.6v1.34l.57-.01a6 6 0 0 1 1.98.36c.42.2.74.56 1.13 1.46l.02.04c.34.78.96 1.1 1.74 1.46.7.3 1.47.32 2.48.4h7.07V29.7h-6.97c-.7-.01-1.4-.11-2.08-.3-.4-.16-.66-.08-1.04-.82a4.07 4.07 0 0 0-1.74-2.1c-.74-.36-1.53-.41-2.48-.5h-.07zm-8.57.03-22.07.13v1.33l22.07-.13z"/>
  <path style="fill:var(--color-foreground-primary)" d="M109.16 44.42a.1.1 0 0 0-.1.1v3.71c0 .06.05.1.11.1h3.71a.1.1 0 0 0 .1-.1v-3.71a.1.1 0 0 0-.1-.1h-3.71zm0-16.08a.1.1 0 0 0-.1.1v3.72c0 .05.05.1.11.1h3.71a.1.1 0 0 0 .1-.1v-3.72a.1.1 0 0 0-.1-.1h-3.71zm0-13a.1.1 0 0 0-.1.1v3.72c0 .05.05.1.11.1h3.71a.1.1 0 0 0 .1-.1v-3.72a.1.1 0 0 0-.1-.1h-3.71z"/>
</svg>
